<svg width="204" height="151" viewBox="0 0 204 151" fill="none" xmlns="http://www.w3.org/2000/svg">
<g clip-path="url(#clip0_158_1301)">
<path d="M3.49919 103.573L5.38744 119.903C6.03006 125.489 9.72861 128.248 14.6466 129.905L23.471 132.876C26.7119 133.977 29.1799 135.295 33.0373 134.616C39.8899 133.385 45.8098 129.846 51.8706 126.37C54.2949 124.98 57.2486 124.684 56.8887 120.707C58.8673 120.69 60.2719 119.036 61.9444 118.81C68.6149 117.935 74.514 115.437 80.8131 113.19C88.1956 110.561 95.3996 108.583 102.569 105.298C106.761 103.381 111.059 101.54 115.584 100.715C119.862 99.914 123.605 98.4091 127.803 97.4215L137.034 95.2679C138.756 94.8673 141.331 94.1108 143.083 94.0715C148.106 93.996 151.828 91.8701 156.276 90.3369C163.481 87.8534 178.903 81.0638 185.212 77.2214L194.806 71.3891C195.882 70.7457 196.936 70.3282 197.047 69.3617C197.158 68.5743 197.624 66.9912 196.626 66.844C195.337 66.6519 194.584 66.1705 193.973 65.4098C193.01 64.2397 194.877 64.1955 195.375 63.2834C196.634 60.9475 198.584 58.5656 199.298 55.9642C200.743 50.7468 199.236 45.483 197.591 40.613C196.179 36.3686 195.355 32.2962 193.332 28.4478C186.11 14.6875 175.671 16.4942 165.893 15.0752C160.513 14.3009 160.662 18.4209 158.315 20.1935C152.671 24.411 145.372 25.696 139.158 29.0753C136.112 21.3467 134.956 29.2643 121.376 32.1137C117.155 33.0013 113.024 34.6309 108.912 35.741C102.551 37.4604 105.64 44.4114 103.527 48.6181L72.519 62.1975L53.0185 70.0842C50.9426 70.9224 47.9487 73.1201 46.0316 73.1757C43.5888 73.2609 42.9424 73.686 40.7945 74.9244C36.2385 77.5547 30.809 79.4311 25.9206 81.6214L15.9043 86.1087C11.6657 88.0046 6.84668 88.3283 4.33708 93.5712C3.10085 96.17 3.12781 100.376 3.49919 103.573ZM189.992 67.8361C181.756 71.505 173.655 65.6733 169.035 58.1644L190.039 52.5925C190.527 56.5992 189.607 61.1352 189.289 64.6879C189.221 65.3817 191.017 67.3832 189.992 67.8361ZM187.85 41.6412C185.832 42.7294 183.553 43.3032 180.844 42.9387C182.503 41.3589 184.32 39.8274 186.693 38.7904C187.445 38.4571 188.746 41.1755 187.85 41.6412ZM188.89 46.6797C189.419 46.4548 190.25 47.9703 189.953 48.332C188.241 50.4442 184.597 50.7858 180.981 51C183.583 49.3012 185.969 47.9723 188.89 46.6797ZM193.365 38.7306L195.445 45.4844C196.915 50.3046 196.833 55.6074 193.513 59.793C193.08 55.7265 194.293 52.7018 194.582 48.9345C191.94 44.2432 190.885 38.6981 190.06 33.469C185.298 30.5564 186.571 25.9249 180.292 21.1686C188.029 21.4092 191.658 33.1702 193.365 38.7306ZM163.651 19.7579C171.015 20.8089 179.971 22.6031 183.11 29.7218C183.711 31.0843 185.901 33.8903 184.374 35.4667C180.299 39.6758 174.907 42.3378 170.521 46.223C169.16 47.441 168.603 48.9501 166.217 49.9532L162.993 30.5917C162.396 27.0304 163.558 23.3653 163.651 19.7579ZM139.363 54.5256C142.062 62.6273 144.888 69.6012 150.992 75.9693C144.23 75.9549 139.769 71.1497 139.376 64.3503C139.189 61.1063 138.494 58.0404 139.363 54.5256ZM113.382 43.7727C113.19 42.2388 115.358 41.1327 116.752 40.7486C122.958 39.1117 128.523 37.1835 134.635 34.348C135.31 36.7929 134.872 38.9165 134.562 41.2319C134.035 45.0898 135.045 48.7732 135.325 52.564C135.836 59.8149 134.826 68.2519 138.528 73.292C142.622 78.843 154.709 82.5258 156.544 79.823C159.064 76.1288 147.167 70.8519 144.158 57.9302L142.43 50.4291C141.062 44.5763 140.178 39.6182 142.093 34.61C143.547 30.7945 147.332 29.6848 150.868 28.4528C153.761 27.4507 155.862 25.5235 159.459 25.6659C159.629 33.7303 161.778 47.5775 163.831 54.9314C165.648 61.529 174.405 71.1558 182.116 72.6645C183.834 73.469 170.121 78.9934 170.315 79.0125C164.671 80.4116 159.879 83.1164 154.591 85.2185C150.562 86.8092 146.529 87.7805 142.807 90.0694C137.451 93.354 131.612 85.7902 127.809 85.4157C127.008 86.0862 126.63 87.4337 126.003 87.6652C123.191 88.6753 121.64 85.1829 119.351 84.6968C113.481 83.4182 108.638 76.5227 108.895 71.0905C109.504 69.8798 110.326 67.175 111.273 66.356C114.02 64.0037 123.438 64.9312 128.249 59.8823C128.594 59.5253 128.916 58.5796 128.741 58.2039C127.946 56.4803 118.543 60.7185 116.943 61.5383C115.533 62.2467 115.391 61.6951 113.895 61.6292C112.236 61.5473 108.443 62.0698 108.503 58.9803C108.538 56.9637 108.915 54.6225 109.3 52.5425C110.702 44.7795 113.909 47.881 113.382 43.7727ZM108.309 40.3734C108.554 39.2083 109.894 39.2099 110.837 39.091C109.96 40.8618 110.127 42.6539 108.459 44.4934C107.939 43.3019 107.984 42.0193 108.309 40.3734ZM42.528 79.8846C44.9567 79.1137 47.3055 79.8175 49.5996 78.9193C53.137 77.5083 55.3978 74.2935 58.6804 72.4827C65.2295 68.8594 72.2797 66.7842 79.1145 63.743L89.8793 58.9547C95.4338 56.4715 100.603 54.5858 106.028 51.4221L104.724 60.1884C104.442 62.0505 105.265 63.1578 106.997 64.485C93.8822 71.7299 80.5939 77.5893 66.1131 81.6207C59.6951 83.4161 53.5052 84.3867 47.3837 87.319C45.119 88.4155 42.4255 88.5576 40.2161 89.7573C39.7419 86.1103 40.7067 82.7842 42.528 79.8846ZM40.7464 93.1654L59.3157 86.6043C64.5446 84.7733 69.8735 84.5813 74.9898 82.2343C77.2481 81.2022 79.7383 80.47 82.1248 79.6298C86.9155 77.9349 99.129 72.7028 103.518 69.7791C104.892 70.9244 105.463 72.7564 105.568 74.5098C105.696 77.0312 107.298 78.5086 108.099 80.3306C110.185 85.0323 117.43 87.1142 120.13 89.4001C122.889 91.7408 124.77 91.3884 128.534 90.9934L92.9795 103.294C84.1676 106.336 72.4263 110.589 63.4689 112.786C60.2378 113.575 57.5038 115.456 53.9949 115.583C52.3744 114.12 50.1415 113.07 48.6241 111.389C47.8866 110.583 48.1171 109.237 46.8454 109.21C45.8342 109.192 45.1767 109.73 44.5048 111.244C42.0108 109.858 40.3419 107.559 38.2579 105.66C36.3554 103.909 33.525 96.3152 36.4469 96.3423C39.207 96.3535 39.4888 93.8236 40.7464 93.1654ZM8.76595 96.7116C11.9604 92.644 17.2904 91.2791 21.4013 88.5235C23.4649 87.1465 34.3097 81.8773 37.7434 81.3521C35.9013 97.9014 35.6931 91.8858 33.564 92.7677C30.7542 93.9246 22.2304 97.0276 22.4632 99.6407C22.7635 102.896 30.3856 97.6677 31.442 98.5537C32.3662 98.7914 32.0769 100.734 31.7966 101.423C30.8914 103.647 12.1295 107.518 16.6968 112.073C18.1231 113.517 31.9839 107.486 34.6124 106.343C36.8385 108.957 38.8219 110.717 41.5489 113.054C37.7228 116.734 24.4378 118.081 27.1484 122.079C28.6733 124.347 44.4364 116.418 47.4005 114.689C49.3087 116.05 50.8278 116.884 52.3298 119.052C49.4253 119.678 47.84 122.503 45.3066 123.508C32.2405 128.771 27.6649 133.093 12.2108 123.947C8.39541 117.397 8.35138 112.701 8.21611 104.95C8.1616 102.517 7.21316 98.7091 8.76595 96.7116Z" fill="black"/>
<path d="M139.363 54.526C142.062 62.6276 144.888 69.6015 150.992 75.9696C144.23 75.9553 139.769 71.15 139.376 64.3506C139.189 61.1066 138.494 58.0407 139.363 54.526Z" fill="white"/>
<path d="M180.981 50.9999C183.583 49.3012 185.969 47.9722 188.89 46.6797C189.419 46.4548 190.25 47.9702 189.953 48.332C188.241 50.4442 184.597 50.7858 180.981 50.9999Z" fill="white"/>
<path d="M180.844 42.9388C182.503 41.359 184.32 39.8274 186.693 38.7904C187.445 38.4572 188.746 41.1755 187.85 41.6413C185.831 42.7294 183.553 43.3033 180.844 42.9388Z" fill="white"/>
<path d="M180.292 21.1687C188.029 21.4093 191.658 33.1703 193.365 38.7307L195.445 45.4845C196.915 50.3047 196.834 55.6075 193.513 59.7931C193.08 55.7266 194.293 52.7019 194.582 48.9346C191.94 44.2433 190.885 38.6982 190.06 33.4691C185.298 30.5565 186.571 25.9249 180.292 21.1687Z" fill="white"/>
<path d="M8.76579 96.7117C11.9602 92.644 17.2903 91.2792 21.4012 88.5236C23.4647 87.1465 34.3095 81.8774 37.7433 81.3521C35.9011 97.9014 35.6929 91.8859 33.5638 92.7677C30.754 93.9246 22.2302 97.0276 22.463 99.6408C22.7633 102.896 30.3854 97.6678 31.4418 98.5538C32.3661 98.7914 32.0767 100.734 31.7965 101.423C30.8912 103.647 12.1293 107.518 16.6967 112.073C18.123 113.517 31.9837 107.486 34.6123 106.344C36.8383 108.958 38.8217 110.717 41.5488 113.054C37.7227 116.734 24.4376 118.081 27.1482 122.079C28.6731 124.347 44.4362 116.418 47.4003 114.689C49.3086 116.05 50.8276 116.884 52.3297 119.052C49.4251 119.678 47.8398 122.503 45.3065 123.508C32.2403 128.771 27.6647 133.093 12.2106 123.947C8.39524 117.397 8.35122 112.701 8.21595 104.95C8.16143 102.517 7.21299 98.7092 8.76579 96.7117Z" fill="white"/>
<path d="M42.528 79.8842C44.9567 79.1133 47.3055 79.817 49.5996 78.9189C53.137 77.5078 55.3978 74.2931 58.6804 72.4822C65.2295 68.859 72.2797 66.7838 79.1145 63.7425L89.8793 58.9542C95.4338 56.4711 100.603 54.5854 106.028 51.4216L104.724 60.188C104.442 62.05 105.265 63.1573 106.997 64.4845C93.8822 71.7295 80.5939 77.5889 66.1131 81.6203C59.6951 83.4156 53.5052 84.3863 47.3837 87.3186C45.119 88.4151 42.4255 88.5571 40.2161 89.7568C39.7419 86.1099 40.7067 82.7838 42.528 79.8842Z" fill="white"/>
<path d="M36.447 96.3426C39.2071 96.3537 39.4889 93.8238 40.7464 93.1657L59.3158 86.6046C64.5447 84.7736 69.8736 84.5816 74.9899 82.2345C77.2482 81.2025 79.7384 80.4703 82.1248 79.6301C86.9155 77.9352 99.1291 72.703 103.518 69.7793C104.892 70.9247 105.463 72.7566 105.568 74.5101C105.696 77.0315 107.298 78.5088 108.099 80.3308C110.185 85.0325 117.43 87.1145 120.13 89.4004C122.889 91.7411 124.77 91.3887 128.534 90.9937L92.9795 103.295C84.1676 106.337 72.4264 110.589 63.469 112.786C60.2379 113.575 57.5038 115.457 53.9949 115.583C52.3744 114.121 50.1415 113.07 48.6242 111.389C47.8866 110.583 48.1171 109.238 46.8455 109.21C45.8343 109.192 45.1767 109.73 44.5048 111.244C42.0108 109.858 40.3419 107.56 38.2579 105.66C36.3554 103.909 33.5251 96.3155 36.447 96.3426Z" fill="white"/>
<path d="M169.035 58.1643L190.039 52.5923C190.527 56.599 189.607 61.135 189.289 64.6878C189.221 65.3816 191.017 67.383 189.992 67.836C181.756 71.5049 173.654 65.6732 169.035 58.1643Z" fill="white"/>
<path d="M163.651 19.7581C171.015 20.8091 179.971 22.6034 183.11 29.722C183.711 31.0845 185.901 33.8905 184.374 35.4669C180.299 39.676 174.907 42.338 170.522 46.2232C169.16 47.4412 168.603 48.9503 166.217 49.9534L162.993 30.5919C162.396 27.0306 163.558 23.3655 163.651 19.7581Z" fill="white"/>
<path d="M109.3 52.542C110.702 44.779 113.909 47.8806 113.382 43.7723C113.19 42.2383 115.358 41.1322 116.752 40.7482C122.958 39.1112 128.523 37.183 134.635 34.3476C135.31 36.7924 134.872 38.916 134.562 41.2314C134.035 45.0893 135.045 48.7727 135.325 52.5635C135.836 59.8145 134.826 68.2514 138.528 73.2915C142.622 78.8425 154.709 82.5254 156.544 79.8226C159.064 76.1284 147.167 70.8514 144.158 57.9297L142.43 50.4286C141.062 44.5758 140.178 39.6178 142.093 34.6095C143.547 30.794 147.332 29.6843 150.868 28.4523C153.761 27.4502 155.862 25.523 159.459 25.6654C159.629 33.7299 161.778 47.577 163.831 54.9309C165.648 61.5285 174.405 71.1554 182.116 72.664C183.834 73.4686 170.121 78.9929 170.315 79.012C164.671 80.4112 159.879 83.116 154.591 85.218C150.562 86.8088 146.529 87.78 142.807 90.0689C137.451 93.3536 131.612 85.7897 127.809 85.4152C127.008 86.0857 126.63 87.4332 126.003 87.6647C123.191 88.6748 121.64 85.1824 119.351 84.6964C113.481 83.4178 108.638 76.5222 108.895 71.0901C109.504 69.8794 110.326 67.1746 111.273 66.3555C114.02 64.0033 123.438 64.9307 128.249 59.8818C128.594 59.5248 128.916 58.5791 128.741 58.2034C127.946 56.4798 118.543 60.718 116.943 61.5379C115.533 62.2462 115.391 61.6946 113.895 61.6287C112.236 61.5468 108.443 62.0693 108.503 58.9799C108.538 56.9633 108.915 54.622 109.3 52.542Z" fill="white"/>
</g>
<defs>
<clipPath id="clip0_158_1301">
<rect width="191.134" height="132.44" fill="white" transform="translate(190.214 150.534) rotate(-174.376)"/>
</clipPath>
</defs>
</svg>
